<?xml version="1.0" encoding="UTF-8" standalone="no"?>
<svg
   width="200"
   height="200"
   viewBox="0 0 200 200"
   fill="none"
   version="1.1"
   id="svg8"
   sodipodi:docname="bitwyre-white.svg"
   inkscape:version="1.4.2 (ebf0e940d0, 2025-05-08)"
   xmlns:inkscape="http://www.inkscape.org/namespaces/inkscape"
   xmlns:sodipodi="http://sodipodi.sourceforge.net/DTD/sodipodi-0.dtd"
   xmlns="http://www.w3.org/2000/svg"
   xmlns:svg="http://www.w3.org/2000/svg">
  <defs
     id="defs8" />
  <sodipodi:namedview
     id="namedview8"
     pagecolor="#ffffff"
     bordercolor="#000000"
     borderopacity="0.25"
     inkscape:showpageshadow="2"
     inkscape:pageopacity="0.0"
     inkscape:pagecheckerboard="0"
     inkscape:deskcolor="#d1d1d1"
     inkscape:zoom="4"
     inkscape:cx="119"
     inkscape:cy="89.125"
     inkscape:window-width="2560"
     inkscape:window-height="1368"
     inkscape:window-x="0"
     inkscape:window-y="0"
     inkscape:window-maximized="1"
     inkscape:current-layer="svg8" />
  <path
     d="m 30.576717,83.977559 c 0,3.629767 1.502691,7.110901 4.177481,9.677461 2.67479,2.566559 6.302579,4.008482 10.085304,4.008482 h 61.024308 c 5.44143,0.0066 10.82165,1.10324 15.79626,3.219298 4.97459,2.11606 9.43426,5.20513 13.09348,9.06959 3.65921,3.86467 6.43745,8.4196 8.15708,13.37348 1.71962,4.95367 2.34268,10.19745 1.82938,15.39568 -1.89473,19.41451 -19.70281,33.86296 -40.01718,33.86296 H 54.966083 l -0.713023,-40.7256 h 51.65147 c 11.92237,-0.0409 23.56979,-3.44018 33.49712,-9.7757 -3.40635,-8.09888 -9.87625,-14.66334 -18.11362,-18.37823 -5.10529,2.28541 -10.66682,3.47953 -16.30037,3.49977 H 44.513476 c -1.828274,-0.002 -3.639061,0.34098 -5.328689,1.01121 -1.689628,0.67 -3.224847,1.6536 -4.517629,2.89419 -1.292805,1.24038 -2.317796,2.71359 -3.016209,4.33498 -0.698411,1.62115 -1.05652,3.35873 -1.053837,5.1131 0,21.35018 0.122242,60.86347 0,61.62596 0,3.62977 1.502704,7.11091 4.177494,9.67747 2.67479,2.56678 6.302556,4.00871 10.085281,4.00871 h 61.024403 c 8.53602,-0.007 16.98301,-1.66603 24.83616,-4.87658 7.85314,-3.21033 14.95115,-7.90698 20.87001,-13.80927 5.91885,-5.90206 10.53703,-12.88848 13.57848,-20.54191 3.04146,-7.65321 4.44403,-15.8165 4.12353,-24.00166 C 167.98836,99.696962 138.72935,74.104068 104.33562,74.104068 H 54.966083 V 28.647082 h 50.938447 c 22.02595,0 39.87476,18.495567 39.01908,40.882044 -0.16313,4.421938 -1.10692,8.785205 -2.79159,12.903895 4.03771,2.5355 7.78091,5.478473 11.16587,8.778533 2.78145,2.730378 5.31051,5.687156 7.5591,8.837196 5.43682,-9.465549 8.37497,-20.064947 8.55765,-30.871648 C 170.00573,33.398037 140.19636,4.1296475 104.70236,4.1296475 h -60.2092 c -1.826572,-0.00253 -3.63575,0.3404171 -5.324042,1.0093793 -1.688315,0.6689392 -3.222614,1.6507203 -4.515144,2.8891573 -1.292528,1.2384372 -2.317887,2.7092339 -3.017519,4.3282719 -0.699609,1.619038 -1.05974,3.354544 -1.059738,5.107235 z"
     fill="#c4e648"
     id="path1"
     style="stroke-width:2.30082" />
</svg>
